<svg width="18" height="12" viewBox="0 0 18 12" fill="none" xmlns="http://www.w3.org/2000/svg">
<path fill-rule="evenodd" clip-rule="evenodd" d="M0.25 6.00018C0.25 5.83442 0.315848 5.67545 0.433058 5.55824C0.550268 5.44103 0.70924 5.37518 0.875 5.37518H15.6163L11.6825 1.44268C11.5651 1.32532 11.4992 1.16615 11.4992 1.00018C11.4992 0.834209 11.5651 0.675037 11.6825 0.557679C11.7999 0.440321 11.959 0.37439 12.125 0.37439C12.291 0.37439 12.4501 0.440321 12.5675 0.557679L17.5675 5.55768C17.6257 5.61574 17.6719 5.68471 17.7034 5.76064C17.7349 5.83657 17.7511 5.91797 17.7511 6.00018C17.7511 6.08239 17.7349 6.16379 17.7034 6.23972C17.6719 6.31565 17.6257 6.38462 17.5675 6.44268L12.5675 11.4427C12.4501 11.56 12.291 11.626 12.125 11.626C11.959 11.626 11.7999 11.56 11.6825 11.4427C11.5651 11.3253 11.4992 11.1661 11.4992 11.0002C11.4992 10.8342 11.5651 10.675 11.6825 10.5577L15.6163 6.62518H0.875C0.70924 6.62518 0.550268 6.55933 0.433058 6.44212C0.315848 6.32491 0.25 6.16594 0.25 6.00018Z" fill="black"/>
</svg>
