<svg width="18" height="18" viewBox="0 0 18 18" fill="none" xmlns="http://www.w3.org/2000/svg">
<path fill-rule="evenodd" clip-rule="evenodd" d="M4.5 2.25H12.375C12.9717 2.25 13.544 2.48705 13.966 2.90901C14.3879 3.33097 14.625 3.90326 14.625 4.5V15.75C14.625 16.3467 14.3879 16.919 13.966 17.341C13.544 17.7629 12.9717 18 12.375 18H4.5C3.90326 18 3.33097 17.7629 2.90901 17.341C2.48705 16.919 2.25 16.3467 2.25 15.75V4.5C2.25 3.90326 2.48705 3.33097 2.90901 2.90901C3.33097 2.48705 3.90326 2.25 4.5 2.25ZM4.5 3.375C4.20163 3.375 3.91548 3.49353 3.7045 3.7045C3.49353 3.91548 3.375 4.20163 3.375 4.5V15.75C3.375 16.0484 3.49353 16.3345 3.7045 16.5455C3.91548 16.7565 4.20163 16.875 4.5 16.875H12.375C12.6734 16.875 12.9595 16.7565 13.1705 16.5455C13.3815 16.3345 13.5 16.0484 13.5 15.75V4.5C13.5 4.20163 13.3815 3.91548 13.1705 3.7045C12.9595 3.49353 12.6734 3.375 12.375 3.375H4.5Z" fill="#146C43"/>
<path d="M6.75 0H14.625C15.2217 0 15.794 0.237053 16.216 0.65901C16.6379 1.08097 16.875 1.65326 16.875 2.25V13.5C16.875 14.0967 16.6379 14.669 16.216 15.091C15.794 15.5129 15.2217 15.75 14.625 15.75V14.625C14.9234 14.625 15.2095 14.5065 15.4205 14.2955C15.6315 14.0845 15.75 13.7984 15.75 13.5V2.25C15.75 1.95163 15.6315 1.66548 15.4205 1.4545C15.2095 1.24353 14.9234 1.125 14.625 1.125H6.75C6.45163 1.125 6.16548 1.24353 5.95451 1.4545C5.74353 1.66548 5.625 1.95163 5.625 2.25H4.5C4.5 1.65326 4.73705 1.08097 5.15901 0.65901C5.58097 0.237053 6.15326 0 6.75 0V0Z" fill="#146C43"/>
</svg>
