<svg width="17" height="18" viewBox="0 0 17 18" fill="none" xmlns="http://www.w3.org/2000/svg">
<path fill-rule="evenodd" clip-rule="evenodd" d="M2.10635 1.36255C1.79803 1.36255 1.50235 1.48503 1.28434 1.70304C1.06632 1.92105 0.943848 2.21674 0.943848 2.52505V3.68755C0.943848 3.99587 1.06632 4.29155 1.28434 4.50956C1.50235 4.72758 1.79803 4.85005 2.10635 4.85005H2.6876V15.3126C2.6876 15.9292 2.93255 16.5206 3.36857 16.9566C3.8046 17.3926 4.39597 17.6376 5.0126 17.6376H11.9876C12.6042 17.6376 13.1956 17.3926 13.6316 16.9566C14.0676 16.5206 14.3126 15.9292 14.3126 15.3126V4.85005H14.8939C15.2022 4.85005 15.4979 4.72758 15.7159 4.50956C15.9339 4.29155 16.0564 3.99587 16.0564 3.68755V2.52505C16.0564 2.21674 15.9339 1.92105 15.7159 1.70304C15.4979 1.48503 15.2022 1.36255 14.8939 1.36255H10.8251C10.8251 1.05424 10.7026 0.758552 10.4846 0.540541C10.2666 0.32253 9.97091 0.200052 9.6626 0.200052L7.3376 0.200052C7.02928 0.200052 6.7336 0.32253 6.51559 0.540541C6.29758 0.758552 6.1751 1.05424 6.1751 1.36255H2.10635ZM5.59385 6.01255C5.74801 6.01255 5.89585 6.07379 6.00485 6.1828C6.11386 6.2918 6.1751 6.43965 6.1751 6.5938V14.7313C6.1751 14.8855 6.11386 15.0333 6.00485 15.1423C5.89585 15.2513 5.74801 15.3126 5.59385 15.3126C5.43969 15.3126 5.29185 15.2513 5.18284 15.1423C5.07384 15.0333 5.0126 14.8855 5.0126 14.7313V6.5938C5.0126 6.43965 5.07384 6.2918 5.18284 6.1828C5.29185 6.07379 5.43969 6.01255 5.59385 6.01255ZM8.5001 6.01255C8.65426 6.01255 8.8021 6.07379 8.91111 6.1828C9.02011 6.2918 9.08135 6.43965 9.08135 6.5938V14.7313C9.08135 14.8855 9.02011 15.0333 8.91111 15.1423C8.8021 15.2513 8.65426 15.3126 8.5001 15.3126C8.34594 15.3126 8.1981 15.2513 8.08909 15.1423C7.98009 15.0333 7.91885 14.8855 7.91885 14.7313V6.5938C7.91885 6.43965 7.98009 6.2918 8.08909 6.1828C8.1981 6.07379 8.34594 6.01255 8.5001 6.01255ZM11.9876 6.5938C11.9876 6.43965 11.9264 6.2918 11.8174 6.1828C11.7084 6.07379 11.5605 6.01255 11.4064 6.01255C11.2522 6.01255 11.1043 6.07379 10.9953 6.1828C10.8863 6.2918 10.8251 6.43965 10.8251 6.5938V14.7313C10.8251 14.8855 10.8863 15.0333 10.9953 15.1423C11.1043 15.2513 11.2522 15.3126 11.4064 15.3126C11.5605 15.3126 11.7084 15.2513 11.8174 15.1423C11.9264 15.0333 11.9876 14.8855 11.9876 14.7313V6.5938Z" fill="#146C43"/>
</svg>
