<svg width="14" height="18" viewBox="0 0 14 18" fill="none" xmlns="http://www.w3.org/2000/svg">
<path fill-rule="evenodd" clip-rule="evenodd" d="M0 2.25C0 1.65326 0.237053 1.08097 0.65901 0.65901C1.08097 0.237053 1.65326 0 2.25 0L8.20463 0C8.50297 6.37171e-05 8.78907 0.118632 9 0.329625L13.1704 4.5C13.3814 4.71093 13.4999 4.99703 13.5 5.29537V15.75C13.5 16.3467 13.2629 16.919 12.841 17.341C12.419 17.7629 11.8467 18 11.25 18H2.25C1.65326 18 1.08097 17.7629 0.65901 17.341C0.237053 16.919 0 16.3467 0 15.75V2.25ZM7.875 4.5L8.4375 1.6875L11.8125 5.0625L9 5.625C8.70163 5.625 8.41548 5.50647 8.2045 5.2955C7.99353 5.08452 7.875 4.79837 7.875 4.5ZM2.8125 9C2.66332 9 2.52024 9.05926 2.41475 9.16475C2.30926 9.27024 2.25 9.41332 2.25 9.5625C2.25 9.71168 2.30926 9.85476 2.41475 9.96025C2.52024 10.0657 2.66332 10.125 2.8125 10.125H10.6875C10.8367 10.125 10.9798 10.0657 11.0852 9.96025C11.1907 9.85476 11.25 9.71168 11.25 9.5625C11.25 9.41332 11.1907 9.27024 11.0852 9.16475C10.9798 9.05926 10.8367 9 10.6875 9H2.8125ZM2.25 11.8125C2.25 11.6633 2.30926 11.5202 2.41475 11.4148C2.52024 11.3093 2.66332 11.25 2.8125 11.25H10.6875C10.8367 11.25 10.9798 11.3093 11.0852 11.4148C11.1907 11.5202 11.25 11.6633 11.25 11.8125C11.25 11.9617 11.1907 12.1048 11.0852 12.2102C10.9798 12.3157 10.8367 12.375 10.6875 12.375H2.8125C2.66332 12.375 2.52024 12.3157 2.41475 12.2102C2.30926 12.1048 2.25 11.9617 2.25 11.8125ZM2.25 14.0625C2.25 13.9133 2.30926 13.7702 2.41475 13.6648C2.52024 13.5593 2.66332 13.5 2.8125 13.5H7.3125C7.46168 13.5 7.60476 13.5593 7.71025 13.6648C7.81574 13.7702 7.875 13.9133 7.875 14.0625C7.875 14.2117 7.81574 14.3548 7.71025 14.4602C7.60476 14.5657 7.46168 14.625 7.3125 14.625H2.8125C2.66332 14.625 2.52024 14.5657 2.41475 14.4602C2.30926 14.3548 2.25 14.2117 2.25 14.0625Z" fill="#146C43"/>
</svg>
