<svg width="16" height="18" viewBox="0 0 16 18" fill="none" xmlns="http://www.w3.org/2000/svg">
<path fill-rule="evenodd" clip-rule="evenodd" d="M0.343872 1.47224C0.343872 1.31808 0.405111 1.17024 0.514116 1.06123C0.623122 0.952225 0.770965 0.890986 0.925122 0.890986H14.8751C15.0293 0.890986 15.1771 0.952225 15.2861 1.06123C15.3951 1.17024 15.4564 1.31808 15.4564 1.47224V3.79724C15.4563 3.94058 15.4034 4.07886 15.3076 4.18551L10.2251 9.83294V15.4222C10.225 15.5442 10.1866 15.663 10.1152 15.7619C10.0439 15.8608 9.94324 15.9347 9.82755 15.9733L6.34005 17.1358C6.25271 17.1649 6.15972 17.1728 6.06872 17.1589C5.97772 17.145 5.89132 17.1097 5.81663 17.0559C5.74194 17.0021 5.6811 16.9313 5.63911 16.8494C5.59712 16.7675 5.57519 16.6768 5.57512 16.5847V9.83294L0.492672 4.18551C0.396892 4.07886 0.343898 3.94058 0.343872 3.79724V1.47224Z" fill="#146C43"/>
</svg>
