<svg width="14" height="19" viewBox="0 0 14 19" fill="none" xmlns="http://www.w3.org/2000/svg">
<path fill-rule="evenodd" clip-rule="evenodd" d="M0.228463 11.3142C0.300699 11.2405 0.386513 11.182 0.48099 11.1421C0.575466 11.1022 0.676749 11.0817 0.779036 11.0817C0.881324 11.0817 0.982606 11.1022 1.07708 11.1421C1.17156 11.182 1.25737 11.2405 1.32961 11.3142L7.0002 17.0878L12.6708 11.3142C12.8168 11.1656 13.0149 11.0821 13.2214 11.0821C13.4279 11.0821 13.6259 11.1656 13.7719 11.3142C13.918 11.4629 14 11.6644 14 11.8746C14 12.0848 13.918 12.2864 13.7719 12.4351L7.55078 18.7675C7.47854 18.8412 7.39273 18.8997 7.29825 18.9396C7.20377 18.9795 7.10249 19 7.0002 19C6.89792 19 6.79663 18.9795 6.70216 18.9396C6.60768 18.8997 6.52187 18.8412 6.44963 18.7675L0.228463 12.4351C0.156043 12.3615 0.0985865 12.2742 0.0593831 12.178C0.0201797 12.0819 0 11.9788 0 11.8746C0 11.7705 0.0201797 11.6674 0.0593831 11.5713C0.0985865 11.4751 0.156043 11.3878 0.228463 11.3142ZM0.228463 7.68577C0.300699 7.75948 0.386513 7.81797 0.48099 7.85787C0.575466 7.89778 0.676749 7.91832 0.779036 7.91832C0.881324 7.91832 0.982606 7.89778 1.07708 7.85787C1.17156 7.81797 1.25737 7.75948 1.32961 7.68577L7.0002 1.91221L12.6708 7.68577C12.8168 7.8344 13.0149 7.9179 13.2214 7.9179C13.4279 7.9179 13.6259 7.8344 13.7719 7.68577C13.918 7.53714 14 7.33555 14 7.12535C14 6.91516 13.918 6.71357 13.7719 6.56494L7.55078 0.232547C7.47854 0.158833 7.39273 0.100349 7.29825 0.0604447C7.20377 0.0205405 7.10249 0 7.0002 0C6.89792 0 6.79663 0.0205405 6.70216 0.0604447C6.60768 0.100349 6.52187 0.158833 6.44963 0.232547L0.228463 6.56494C0.156043 6.63846 0.0985865 6.72581 0.0593831 6.82198C0.0201797 6.91815 0 7.02124 0 7.12535C0 7.22947 0.0201797 7.33256 0.0593831 7.42873C0.0985865 7.52489 0.156043 7.61224 0.228463 7.68577Z" fill="#146C43"/>
</svg>
