<svg width="23" height="23" viewBox="0 0 23 23" fill="none" xmlns="http://www.w3.org/2000/svg">
<path fill-rule="evenodd" clip-rule="evenodd" d="M10.9986 5.33333C9.55778 5.33389 8.15588 5.80124 7.00291 6.66538C5.84995 7.52953 5.00799 8.74396 4.60313 10.1268C4.19827 11.5096 4.25231 12.9863 4.75716 14.3359C5.262 15.6854 6.19048 16.835 7.40352 17.6126C8.61656 18.3901 10.0489 18.7538 11.4859 18.649C12.923 18.5443 14.2874 17.9767 15.3748 17.0315C16.4623 16.0862 17.2142 14.8141 17.518 13.4056C17.8218 11.9971 17.6611 10.5281 17.06 9.21866C16.9945 9.05946 16.9932 8.88112 17.0563 8.72096C17.1194 8.56081 17.2419 8.43125 17.3984 8.35942C17.5548 8.28758 17.7329 8.27903 17.8955 8.33555C18.0581 8.39208 18.1925 8.50929 18.2706 8.66266C18.992 10.2341 19.1847 11.997 18.8201 13.6872C18.4554 15.3774 17.5529 16.9039 16.2479 18.0382C14.9428 19.1724 13.3054 19.8533 11.5808 19.9789C9.8563 20.1044 8.13751 19.6678 6.68193 18.7346C5.22635 17.8013 4.11232 16.4215 3.50672 14.8019C2.90112 13.1823 2.83655 11.4102 3.32269 9.75081C3.80882 8.09147 4.81948 6.63428 6.20328 5.59754C7.58709 4.56079 9.26955 4.00029 10.9986 4V5.33333Z" fill="#146C43"/>
<path d="M11.5 7.41994V1.76769C11.5 1.6994 11.5195 1.63254 11.5562 1.57492C11.5928 1.51731 11.6451 1.47133 11.707 1.44237C11.7688 1.41341 11.8376 1.40266 11.9053 1.4114C11.9731 1.42013 12.0369 1.44798 12.0894 1.49169L15.4819 4.31781C15.6544 4.46156 15.6544 4.72606 15.4819 4.86981L12.0894 7.69594C12.0369 7.73964 11.9731 7.76749 11.9053 7.77623C11.8376 7.78496 11.7688 7.77422 11.707 7.74526C11.6451 7.7163 11.5928 7.67032 11.5562 7.61271C11.5195 7.55509 11.5 7.48822 11.5 7.41994Z" fill="#146C43"/>
</svg>
