<svg width="19" height="13" viewBox="0 0 19 13" fill="none" xmlns="http://www.w3.org/2000/svg">
<path d="M15.766 7.31381C15.4589 6.9259 15.5468 6.75331 15.766 6.40656C15.77 6.4026 18.3057 2.89869 18.567 1.7104L18.5685 1.7096C18.6984 1.27656 18.5685 0.958313 17.9408 0.958313H15.8634C15.3346 0.958313 15.0907 1.23144 14.9601 1.53702C14.9601 1.53702 13.9025 4.06877 12.4062 5.7099C11.9233 6.1841 11.7 6.3361 11.4364 6.3361C11.3066 6.3361 11.1047 6.1841 11.1047 5.75106V1.7096C11.1047 1.19027 10.9567 0.958313 10.5189 0.958313H7.25246C6.92075 0.958313 6.72363 1.20056 6.72363 1.42619C6.72363 1.9186 7.47175 2.03181 7.54933 3.41723V6.42319C7.54933 7.08185 7.42979 7.20298 7.16458 7.20298C6.45842 7.20298 4.74446 4.66094 3.72875 1.75156C3.52371 1.1871 3.32342 0.959105 2.79063 0.959105H0.7125C0.119542 0.959105 0 1.23223 0 1.53781C0 2.07773 0.706166 4.76227 3.28383 8.30894C5.00175 10.7299 7.42108 12.0416 9.62192 12.0416C10.9448 12.0416 11.1063 11.7503 11.1063 11.2492C11.1063 8.93594 10.9868 8.71744 11.6494 8.71744C11.9565 8.71744 12.4854 8.86944 13.7204 10.0371C15.1319 11.4218 15.3639 12.0416 16.154 12.0416H18.2313C18.8235 12.0416 19.1235 11.7503 18.9509 11.1756C18.5559 9.96669 15.8864 7.48006 15.766 7.31381Z" fill="#949494"/>
</svg>
